<?xml version="1.0" standalone="no"?>
<!DOCTYPE svg PUBLIC "-//W3C//DTD SVG 1.1//EN" "http://www.w3.org/Graphics/SVG/1.1/DTD/svg11.dtd" >
<svg xmlns="http://www.w3.org/2000/svg" xmlns:xlink="http://www.w3.org/1999/xlink" version="1.1">
<metadata>
Created by FontForge 20170731 at Thu Apr 17 16:12:38 2003
 By Aleksey,,,
Copyright (c) 1988 Adobe Systems Incorporated.  All Rights Reserved.Frutiger is a registered trademark of Linotype AG and/or its subsidiaries.
</metadata>
<defs>
<font id="FrutigerRoman" horiz-adv-x="556" >
  <font-face 
    font-family="Frutiger"
    font-weight="400"
    font-stretch="normal"
    units-per-em="1000"
    panose-1="0 0 4 0 0 0 0 0 0 0"
    ascent="800"
    descent="-200"
    x-height="510"
    cap-height="698"
    bbox="-169 -222 1000 935"
    underline-thickness="50"
    underline-position="-175"
    unicode-range="U+0020-F002"
  />
<missing-glyph horiz-adv-x="500" 
d="M63 0v784h375v-784h-375zM125 63h250v659h-250v-659z" />
    <glyph glyph-name=".notdef" horiz-adv-x="500" 
d="M63 0v784h375v-784h-375zM125 63h250v659h-250v-659z" />
    <glyph glyph-name=".null" horiz-adv-x="0" 
 />
    <glyph glyph-name="nonmarkingreturn" horiz-adv-x="278" 
 />
    <glyph glyph-name="space" unicode=" " horiz-adv-x="278" 
 />
    <glyph glyph-name="exclam" unicode="!" horiz-adv-x="389" 
d="M251 698l-13 -502h-86l-13 502h112zM139 0v112h112v-112h-112z" />
    <glyph glyph-name="quotedbl" unicode="&#x22;" 
d="M309 453v245h88v-245h-88zM159 453v245h88v-245h-88z" />
    <glyph glyph-name="numbersign" unicode="#" 
d="M94 0l29 208h-95v76h106l18 130h-96v76h107l29 208h76l-29 -208h118l29 208h76l-29 -208h95v-76h-106l-18 -130h95v-76h-106l-29 -208h-76l29 208h-118l-29 -208h-76zM328 284l18 130h-118l-18 -130h118z" />
    <glyph glyph-name="dollar" unicode="$" 
d="M247 435v179q-66 -25 -66 -91q0 -47 66 -88zM305 290v-203q31 10 50.5 39t19.5 63q0 64 -70 101zM247 -106v94h-12q-82 0 -152 29l12 96q53 -37 138 -37h14v243l-34 17q-66 33 -98 71q-40 46 -40 113q0 74 49 124t123 62v100h58v-96q76 -2 143 -25l-14 -92
q-49 29 -119 29h-10v-217l58 -32q60 -33 87 -70q31 -43 31 -108q0 -80 -48 -134t-128 -67v-100h-58z" />
    <glyph glyph-name="percent" unicode="%" horiz-adv-x="1000" 
d="M260 310q-80 0 -118 62q-32 52 -32 138q0 200 150 200t150 -200q0 -86 -32 -138q-38 -62 -118 -62zM740 58q62 0 62 130q0 59 -6 82q-13 48 -56 48q-62 0 -62 -130t62 -130zM247 -22l433 742h72l-433 -742h-72zM740 -12q-80 0 -118 62q-32 52 -32 138q0 200 150 200
t150 -200q0 -86 -32 -138q-38 -62 -118 -62zM260 380q62 0 62 130q0 59 -6 82q-13 48 -56 48q-62 0 -62 -130t62 -130z" />
    <glyph glyph-name="ampersand" unicode="&#x26;" horiz-adv-x="722" 
d="M554 377h94q-11 -133 -80 -239l122 -138h-125l-57 68q-70 -80 -200 -80q-103 0 -164 53.5t-61 141.5q0 141 156 204q-72 88 -72 159q0 80 54 124q48 40 128 40q74 0 121 -38q52 -42 52 -120q0 -114 -153 -182l142 -162q36 57 43 169zM189 190q0 -56 42 -92q39 -34 95 -34
q70 0 129 67l-168 197q-50 -34 -69 -57q-29 -34 -29 -81zM261 544q0 -50 62 -118q105 50 105 122q0 86 -83 86q-36 0 -59 -22q-25 -25 -25 -68z" />
    <glyph glyph-name="quotesingle" unicode="'" horiz-adv-x="278" 
d="M95 453v245h88v-245h-88z" />
    <glyph glyph-name="parenleft" unicode="(" horiz-adv-x="333" 
d="M319 -140h-90q-164 245 -164 448q0 117 48 236q36 89 116 212h90q-73 -130 -106 -215q-48 -125 -48 -233q0 -186 154 -448z" />
    <glyph glyph-name="parenright" unicode=")" horiz-adv-x="333" 
d="M14 756h90q164 -245 164 -448q0 -117 -48 -236q-36 -89 -116 -212h-90q73 130 106 215q48 125 48 233q0 186 -154 448z" />
    <glyph glyph-name="asterisk" unicode="*" 
d="M359 310l-81 138l-82 -138l-74 50l110 123l-160 33l28 85l151 -62l-16 159h91l-15 -159l146 62l27 -85l-157 -33l107 -123z" />
    <glyph glyph-name="plus" unicode="+" horiz-adv-x="600" 
d="M47 209v88h209v209h88v-209h209v-88h-209v-209h-88v209h-209z" />
    <glyph glyph-name="comma" unicode="," horiz-adv-x="278" 
d="M20 -133l63 245h112l-85 -245h-90z" />
    <glyph glyph-name="hyphen" unicode="-" horiz-adv-x="333" 
d="M38 231v76h257v-76h-257z" />
    <glyph glyph-name="hyphen" unicode="&#x2010;" horiz-adv-x="333" 
d="M38 231v76h257v-76h-257z" />
    <glyph glyph-name="period" unicode="." horiz-adv-x="278" 
d="M83 0v112h112v-112h-112z" />
    <glyph glyph-name="slash" unicode="/" horiz-adv-x="278" 
d="M-25 -12l240 722h88l-240 -722h-88z" />
    <glyph glyph-name="zero" unicode="0" 
d="M41 349q0 144 46 238q61 123 191 123t191 -123q46 -94 46 -238t-46 -238q-61 -123 -191 -123t-191 123q-46 94 -46 238zM147 349q0 -279 131 -279t131 279q0 101 -22 173q-34 106 -109 106t-109 -106q-22 -72 -22 -173z" />
    <glyph glyph-name="one" unicode="1" 
d="M269 0v583l-107 -92l-53 67l171 140h89v-698h-100z" />
    <glyph glyph-name="two" unicode="2" 
d="M50 0v107q41 35 125 112q91 85 129 134q72 90 72 164q0 48 -38.5 79.5t-95.5 31.5q-79 0 -160 -45l-10 86q95 41 183 41q99 0 161 -50q66 -54 66 -149q0 -76 -72 -173q-40 -54 -130 -144q-44 -40 -123 -112h335v-82h-442z" />
    <glyph glyph-name="three" unicode="3" 
d="M145 322v82h56q67 0 114 24q59 30 59 90q0 56 -41 85q-36 25 -96 25q-79 0 -155 -38l-6 89q84 31 175 31q99 0 161 -45q68 -51 68 -145q0 -63 -45 -107q-41 -40 -105 -52v-2q156 -32 156 -173q0 -198 -275 -198q-69 0 -160 27l6 93q76 -38 153 -38q67 0 114 26
q56 32 56 93q0 133 -174 133h-61z" />
    <glyph glyph-name="four" unicode="4" 
d="M344 241v375h-2l-218 -375h220zM344 0v159h-325v82l282 457h143v-457h88v-82h-88v-159h-100z" />
    <glyph glyph-name="five" unicode="5" 
d="M478 698v-82h-290l-6 -187q38 10 90 10q93 0 159.5 -62t66.5 -154q0 -110 -79 -175q-74 -60 -188 -60q-86 0 -150 23l3 94q63 -35 145 -35q66 0 114.5 37t48.5 101q0 72 -49 112q-46 37 -120 37q-75 0 -135 -26l6 367h384z" />
    <glyph glyph-name="six" unicode="6" 
d="M479 688l-14 -89q-55 29 -124 29q-93 0 -145 -77q-48 -69 -50 -177l2 1q65 64 153 64q99 0 156 -63q54 -60 54 -157q0 -106 -63 -168.5t-161 -62.5q-235 0 -235 335q0 165 59 264q72 123 224 123q94 0 144 -22zM405 217q0 54 -29 94q-33 46 -88 46q-60 0 -95 -39.5
t-35 -100.5q0 -55 31 -98q35 -49 92 -49q60 0 94 45q30 41 30 102z" />
    <glyph glyph-name="seven" unicode="7" 
d="M491 698v-82l-258 -616h-110l266 616h-340v82h442z" />
    <glyph glyph-name="eight" unicode="8" 
d="M276 -12q-96 0 -163 49q-75 55 -75 146q0 133 148 184v2q-131 46 -131 174q0 70 61.5 118.5t164.5 48.5q98 0 160 -50q56 -45 56 -107q0 -60 -28 -100q-29 -43 -98 -80q66 -23 105 -68q42 -50 42 -117q0 -100 -72 -152q-64 -48 -170 -48zM412 180q1 45 -21 74
q-18 23 -58 43q-36 16 -73 33q-40 -27 -79 -55q-37 -33 -37 -86q0 -55 44 -88q41 -31 97 -31q52 0 88.5 29.5t38.5 80.5zM155 529q0 -34 37 -64q30 -25 107 -63q49 38 65 58q27 34 27 80q0 45 -40 69q-33 19 -78 19q-41 0 -76 -25q-42 -29 -42 -74z" />
    <glyph glyph-name="nine" unicode="9" 
d="M77 10l14 89q55 -29 124 -29q93 0 146 77q47 69 49 177l-2 -1q-65 -64 -153 -64q-99 0 -156 63q-54 60 -54 157q0 106 64 170q62 61 160 61q235 0 235 -335q0 -165 -59 -264q-72 -123 -224 -123q-94 0 -144 22zM151 481q0 -54 29 -94q33 -46 88 -46q60 0 96 41
q34 38 34 99q0 56 -31 98q-35 49 -92 49q-60 0 -93 -45q-31 -41 -31 -102z" />
    <glyph glyph-name="colon" unicode=":" horiz-adv-x="278" 
d="M195 510v-112h-112v112h112zM83 0v112h112v-112h-112z" />
    <glyph glyph-name="semicolon" unicode=";" horiz-adv-x="278" 
d="M20 -133l63 245h112l-85 -245h-90zM195 510v-112h-112v112h112z" />
    <glyph glyph-name="less" unicode="&#x3c;" horiz-adv-x="600" 
d="M554 514v-88l-394 -173l394 -173v-88l-508 223v76z" />
    <glyph glyph-name="equal" unicode="=" horiz-adv-x="600" 
d="M47 314v88h506v-88h-506zM47 104v88h506v-88h-506z" />
    <glyph glyph-name="greater" unicode="&#x3e;" horiz-adv-x="600" 
d="M46 -8v88l394 173l-394 173v88l508 -223v-76z" />
    <glyph glyph-name="question" unicode="?" horiz-adv-x="500" 
d="M204 196v21q0 47 13 77t49 72q45 52 55 69q29 44 29 86q0 50 -37 77q-33 24 -84 24q-93 0 -148 -40l-7 95q76 33 166 33q88 0 149 -46q67 -51 67 -136q0 -65 -50 -132q-45 -57 -90 -113q-18 -30 -18 -69v-18h-94zM195 0v112h112v-112h-112z" />
    <glyph glyph-name="at" unicode="@" horiz-adv-x="800" 
d="M366 217q52 0 92 55q36 51 36 108q0 36 -22.5 60t-54.5 24q-56 0 -96 -52q-37 -48 -37 -104q0 -40 22 -65.5t60 -25.5zM615 532l-67 -254q-8 -32 -8 -42q1 -25 18 -25q45 0 83.5 56.5t38.5 130.5q0 113 -78 180q-73 62 -187 62q-125 0 -204 -84t-79 -209q0 -138 83 -216
q79 -73 210 -73q133 0 217 89h76q-49 -75 -127.5 -117t-169.5 -42q-160 0 -263 95q-108 99 -108 266q0 160 108 262q104 99 258 99q136 0 233 -82q101 -86 101 -215q0 -127 -90 -210q-74 -68 -147 -68q-55 0 -58 56h-2q-54 -56 -109 -56q-62 0 -105 47t-43 113q0 99 59 172
q62 79 156 79q73 0 114 -66l15 52h75z" />
    <glyph glyph-name="A" unicode="A" horiz-adv-x="722" 
d="M12 0l298 698h105l295 -698h-109l-71 176h-342l-71 -176h-105zM498 258l-139 346l-139 -346h278z" />
    <glyph glyph-name="B" unicode="B" horiz-adv-x="611" 
d="M83 0v698h189q245 0 245 -176q0 -130 -144 -166v-2q73 -6 117.5 -51t44.5 -117q0 -186 -266 -186h-186zM183 318v-236h75q171 0 171 113q0 123 -181 123h-65zM183 616v-216h55q88 0 126 17q53 25 53 95q0 104 -129 104h-105z" />
    <glyph glyph-name="C" unicode="C" horiz-adv-x="611" 
d="M579 680l-8 -97q-66 39 -144 39q-120 0 -194 -77t-74 -196q0 -121 76 -197t187 -76q95 0 152 34l6 -97q-60 -25 -159 -25q-166 0 -267 99t-101 265q0 160 104 259t265 99q89 0 157 -30z" />
    <glyph glyph-name="D" unicode="D" horiz-adv-x="722" 
d="M83 0v698h206q160 0 264 -91q108 -95 108 -252q0 -173 -98.5 -264t-273.5 -91h-206zM183 610v-522h105q267 0 267 263q0 119 -73 191q-71 68 -182 68h-117z" />
    <glyph glyph-name="E" unicode="E" 
d="M94 0v698h391v-88h-291v-204h265v-88h-265v-230h291v-88h-391z" />
    <glyph glyph-name="F" unicode="F" horiz-adv-x="500" 
d="M83 0v698h371v-88h-271v-204h259v-88h-259v-318h-100z" />
    <glyph glyph-name="G" unicode="G" horiz-adv-x="722" 
d="M627 675l-8 -101q-73 48 -192 48t-193.5 -77.5t-74.5 -195.5q0 -121 76 -197t187 -76q52 0 112 12v212h-147v82h247v-363q-91 -31 -213 -31q-166 0 -267 99t-101 265q0 160 104 259t265 99q104 0 205 -35z" />
    <glyph glyph-name="H" unicode="H" horiz-adv-x="722" 
d="M94 0v698h100v-292h334v292h100v-698h-100v318h-334v-318h-100z" />
    <glyph glyph-name="I" unicode="I" horiz-adv-x="278" 
d="M89 0v698h100v-698h-100z" />
    <glyph glyph-name="J" unicode="J" horiz-adv-x="389" 
d="M21 0v86q27 -10 63 -10q64 0 91 36q23 32 23 100v486h100v-518q0 -84 -41 -133q-50 -59 -155 -59q-49 0 -81 12z" />
    <glyph glyph-name="K" unicode="K" horiz-adv-x="667" 
d="M94 0v698h100v-307l298 307h133l-328 -330l354 -368h-146l-311 342v-342h-100z" />
    <glyph glyph-name="L" unicode="L" horiz-adv-x="500" 
d="M88 0v698h100v-610h292v-88h-392z" />
    <glyph glyph-name="M" unicode="M" horiz-adv-x="944" 
d="M90 0v698h165l219 -580l215 580h165v-698h-100v604h-2l-231 -604h-98l-231 604h-2v-604h-100z" />
    <glyph glyph-name="N" unicode="N" horiz-adv-x="722" 
d="M88 0v698h136l308 -562h2v562h100v-698h-128l-316 574h-2v-574h-100z" />
    <glyph glyph-name="O" unicode="O" horiz-adv-x="778" 
d="M159 349q0 -114 55 -189q62 -84 175 -84t175 84q55 75 55 189t-57 190q-63 83 -173 83t-173 -83q-57 -76 -57 -190zM53 349q0 159 89 258q91 103 247 103t248 -103q88 -99 88 -258q0 -162 -88 -260q-91 -101 -248 -101t-248 101q-88 98 -88 260z" />
    <glyph glyph-name="P" unicode="P" 
d="M183 610v-243h99q55 0 93 27q47 33 47 96q0 60 -54 93q-43 27 -100 27h-85zM83 0v698h183q262 0 262 -209q0 -108 -76 -163q-65 -47 -171 -47h-98v-279h-100z" />
    <glyph glyph-name="Q" unicode="Q" horiz-adv-x="778" 
d="M159 349q0 -114 55 -189q62 -84 175 -84t175 84q55 75 55 189t-57 190q-63 83 -173 83t-173 -83q-57 -76 -57 -190zM575 -129l-130 121q-24 -4 -56 -4q-157 0 -248 101q-88 98 -88 260q0 159 89 258q91 103 247 103t248 -103q88 -99 88 -258q0 -118 -49 -204.5
t-139 -126.5l162 -147h-124z" />
    <glyph glyph-name="R" unicode="R" horiz-adv-x="611" 
d="M83 0v698h171q126 0 187 -32q84 -44 84 -157q0 -62 -40.5 -105t-103.5 -54v-2q43 -16 68 -70l132 -278h-114l-107 242q-21 46 -50 60q-19 8 -67 8h-60v-310h-100zM183 610v-212h85q71 0 111 29t40 80q0 103 -140 103h-96z" />
    <glyph glyph-name="S" unicode="S" horiz-adv-x="500" 
d="M420 685l-14 -92q-74 29 -131 29q-122 0 -122 -93q0 -53 78 -95q135 -72 144 -79q78 -60 78 -159q0 -106 -75 -160q-67 -48 -180 -48q-54 0 -143 29l10 93q83 -34 145 -34q51 0 90 26q47 32 47 88q0 63 -78 107l-144 76q-78 55 -78 147q0 90 65 142q61 48 159 48
q78 0 149 -25z" />
    <glyph glyph-name="T" unicode="T" 
d="M228 0v610h-217v88h534v-88h-217v-610h-100z" />
    <glyph glyph-name="U" unicode="U" horiz-adv-x="722" 
d="M632 698v-409q0 -146 -70.5 -223.5t-200.5 -77.5t-200.5 77.5t-70.5 223.5v409h100v-396q0 -226 171 -226t171 226v396h100z" />
    <glyph glyph-name="V" unicode="V" horiz-adv-x="667" 
d="M661 698l-267 -698h-125l-263 698h112l215 -610h2l221 610h105z" />
    <glyph glyph-name="W" unicode="W" horiz-adv-x="1000" 
d="M213 0l-211 698h110l167 -598h2l149 598h142l151 -598h2l167 598h106l-215 -698h-129l-152 610h-2l-153 -610h-134z" />
    <glyph glyph-name="X" unicode="X" horiz-adv-x="667" 
d="M8 0l257 363l-234 335h120l186 -268l185 268h114l-235 -333l258 -365h-126l-206 296l-199 -296h-120z" />
    <glyph glyph-name="Y" unicode="Y" horiz-adv-x="667" 
d="M284 0v292l-273 406h117l208 -313l203 313h117l-272 -406v-292h-100z" />
    <glyph glyph-name="Z" unicode="Z" 
d="M32 0v90l362 520h-350v88h465v-90l-361 -520h367v-88h-483z" />
    <glyph glyph-name="bracketleft" unicode="[" horiz-adv-x="333" 
d="M95 -140v896h189v-70h-101v-756h101v-70h-189z" />
    <glyph glyph-name="backslash" unicode="\" horiz-adv-x="278" 
d="M215 -12l-240 722h88l240 -722h-88z" />
    <glyph glyph-name="bracketright" unicode="]" horiz-adv-x="333" 
d="M238 756v-896h-189v70h101v756h-101v70h189z" />
    <glyph glyph-name="asciicircum" unicode="^" horiz-adv-x="600" 
d="M60 294l199 404h82l199 -404h-90l-150 312l-150 -312h-90z" />
    <glyph glyph-name="underscore" unicode="_" horiz-adv-x="500" 
d="M0 -125v50h500v-50h-500z" />
    <glyph glyph-name="grave" unicode="`" horiz-adv-x="278" 
d="M116 725l89 -144h-67l-131 144h109z" />
    <glyph glyph-name="a" unicode="a" 
d="M109 394l-5 80q81 48 168 48q107 0 156 -52.5t49 -158.5v-211q0 -70 4 -100h-88v66h-2q-55 -78 -158 -78q-86 0 -135 38q-52 41 -52 121q0 87 82 132q65 36 155 36q63 0 100 -2q0 68 -28.5 100.5t-97.5 32.5q-86 0 -148 -52zM383 198v45q-10 0 -30 1t-30 1
q-177 0 -177 -98q0 -38 31 -62q28 -21 64 -21q68 0 106 39q36 36 36 95z" />
    <glyph glyph-name="b" unicode="b" horiz-adv-x="611" 
d="M80 0v750h94v-310h2q51 82 169 82q106 0 166 -78q54 -70 54 -180q0 -115 -52 -190q-59 -86 -167 -86q-119 0 -174 84h-2v-72h-90zM465 257q0 78 -32 129q-37 60 -108 60q-72 0 -114 -60q-37 -54 -37 -132q0 -73 35 -127q42 -63 115 -63q69 0 108 66q33 56 33 127z" />
    <glyph glyph-name="c" unicode="c" horiz-adv-x="444" 
d="M412 502l-8 -78q-53 22 -102 22q-75 0 -121 -59q-43 -55 -43 -132t40 -130q46 -61 130 -61q57 0 101 29l7 -84q-45 -21 -118 -21q-113 0 -188 79q-72 76 -72 188q0 117 72 192t188 75q65 0 114 -20z" />
    <glyph glyph-name="d" unicode="d" horiz-adv-x="611" 
d="M441 0v72h-2q-55 -84 -174 -84q-108 0 -167 86q-52 75 -52 190q0 110 55 180q59 78 165 78q118 0 169 -82h2v310h94v-750h-90zM146 257q0 -71 33 -127q39 -66 108 -66q73 0 115 63q35 54 35 127q0 78 -37 132q-42 60 -114 60q-71 0 -108 -60q-32 -50 -32 -129z" />
    <glyph glyph-name="e" unicode="e" 
d="M471 115v-94q-91 -33 -161 -33q-132 0 -200 76q-64 71 -64 200q0 114 66 186t173 72q225 0 225 -288h-364q0 -74 51 -123q48 -47 117 -47q42 0 93 18q44 16 64 33zM146 304h264q0 61 -34 101.5t-93 40.5q-63 0 -100 -46q-31 -38 -37 -96z" />
    <glyph glyph-name="f" unicode="f" horiz-adv-x="389" 
d="M141 0v434h-120v76h120v47q0 102 33 149q40 56 138 56q25 0 63 -6l-4 -76q-16 6 -45 6q-56 0 -77 -36q-14 -26 -14 -85v-55h135v-76h-135v-434h-94z" />
    <glyph glyph-name="g" unicode="g" horiz-adv-x="611" 
d="M531 510v-488q0 -244 -263 -244q-81 0 -183 35l10 87q100 -46 184 -46q74 0 116 47t42 128v50h-2q-60 -79 -171 -79q-104 0 -164 76q-54 69 -54 175q0 108 56 185q64 86 172 86q123 0 168 -88h2v76h87zM288 76q65 0 107 50t42 123q0 84 -37 138q-40 59 -112 59
q-66 0 -107 -62q-35 -55 -35 -128q0 -75 38 -126q40 -54 104 -54z" />
    <glyph glyph-name="h" unicode="h" horiz-adv-x="611" 
d="M80 0v750h94v-313h2q54 85 164 85q191 0 191 -219v-303h-94v264q0 93 -24 136.5t-84 45.5q-77 2 -118 -57q-37 -55 -37 -153v-236h-94z" />
    <glyph glyph-name="i" unicode="i" horiz-adv-x="278" 
d="M92 0v510h94v-510h-94zM192 730v-106h-106v106h106z" />
    <glyph glyph-name="j" unicode="j" horiz-adv-x="278" 
d="M-16 -218l3 81q18 -3 38 -3q67 0 67 108v542h94v-528q0 -86 -19 -130q-33 -74 -125 -74q-41 0 -58 4zM192 730v-106h-106v106h106z" />
    <glyph glyph-name="k" unicode="k" 
d="M80 0v750h94v-447l205 207h128l-237 -226l267 -284h-135l-228 262v-262h-94z" />
    <glyph glyph-name="l" unicode="l" horiz-adv-x="278" 
d="M92 0v750h94v-750h-94z" />
    <glyph glyph-name="m" unicode="m" horiz-adv-x="889" 
d="M79 0v510h88v-74h2q52 86 162 86q106 0 145 -99q24 50 75 77q41 22 83 22q177 0 177 -195v-327h-94v304q0 142 -91 142q-67 0 -103 -59q-31 -51 -31 -130v-257h-94v304q0 142 -91 142q-67 0 -103 -59q-31 -51 -31 -130v-257h-94z" />
    <glyph glyph-name="n" unicode="n" horiz-adv-x="611" 
d="M80 0v510h91v-81h2q21 43 67 68t100 25q191 0 191 -219v-303h-94v264q0 93 -24 136.5t-84 45.5q-77 2 -118 -57q-37 -55 -37 -153v-236h-94z" />
    <glyph glyph-name="o" unicode="o" horiz-adv-x="611" 
d="M46 255q0 117 72 192t188 75q115 0 187 -75t72 -192q0 -112 -72 -188q-74 -79 -187 -79t-188 79q-72 76 -72 188zM146 255q0 -76 38 -130q44 -61 122 -61q77 0 121 61q38 54 38 130q0 77 -42 132q-45 59 -117 59t-118 -59q-42 -55 -42 -132z" />
    <glyph glyph-name="p" unicode="p" horiz-adv-x="611" 
d="M80 -210v720h90v-72h2q55 84 173 84q106 0 166 -78q54 -70 54 -180q0 -115 -52 -190q-59 -86 -167 -86q-119 0 -170 82h-2v-280h-94zM465 257q0 78 -32 129q-37 60 -108 60q-72 0 -114 -60q-37 -54 -37 -132q0 -73 35 -127q42 -63 115 -63q69 0 108 66q33 56 33 127z" />
    <glyph glyph-name="q" unicode="q" horiz-adv-x="611" 
d="M531 510v-720h-94v277h-2q-22 -36 -68 -57.5t-102 -21.5q-108 0 -167 86q-52 75 -52 190q0 110 55 180q59 78 165 78q119 0 173 -85h2v73h90zM146 257q0 -71 33 -127q39 -66 108 -66q73 0 115 63q35 54 35 127q0 78 -37 132q-42 60 -114 60q-71 0 -108 -60
q-32 -50 -32 -129z" />
    <glyph glyph-name="r" unicode="r" horiz-adv-x="389" 
d="M80 0v510h88v-79h2q19 40 56 65.5t77 25.5q27 0 62 -7v-84q-22 9 -52 9q-63 0 -101 -56t-38 -152v-232h-94z" />
    <glyph glyph-name="s" unicode="s" horiz-adv-x="389" 
d="M37 16l5 84q56 -36 117 -36q38 0 64 16q32 19 32 57q0 37 -57 69q-53 28 -107 57q-57 41 -57 102q0 76 52 118q48 39 128 39q50 0 117 -20l-8 -82q-15 9 -48 17.5t-51 8.5q-38 0 -64 -16t-26 -46q0 -42 57 -71q53 -28 107 -55q57 -41 57 -111q0 -77 -55 -120
q-49 -39 -123 -39q-88 0 -140 28z" />
    <glyph glyph-name="t" unicode="t" horiz-adv-x="389" 
d="M351 510v-76h-135v-279q0 -43 22.5 -67t56.5 -24q36 0 64 18v-80q-49 -14 -80 -14q-157 0 -157 148v298h-115v76h115v118l94 30v-148h135z" />
    <glyph glyph-name="u" unicode="u" horiz-adv-x="611" 
d="M531 510v-510h-91v81h-2q-21 -43 -67 -68t-100 -25q-191 0 -191 219v303h94v-264q0 -93 23 -135q25 -45 85 -47q77 -2 118 57q37 55 37 153v236h94z" />
    <glyph glyph-name="v" unicode="v" horiz-adv-x="500" 
d="M489 510l-183 -510h-112l-183 510h103l138 -416h2l141 416h94z" />
    <glyph glyph-name="w" unicode="w" horiz-adv-x="833" 
d="M821 510l-164 -510h-109l-132 428h-2l-129 -428h-109l-164 510h103l117 -422h2l130 422h111l128 -422h2l124 422h92z" />
    <glyph glyph-name="x" unicode="x" horiz-adv-x="500" 
d="M10 0l184 267l-166 243h117l111 -182l113 182h105l-164 -243l180 -267h-116l-126 200l-126 -200h-112z" />
    <glyph glyph-name="y" unicode="y" horiz-adv-x="500" 
d="M36 -215l6 77q24 -8 44 -8q53 0 88 59q24 43 24 67q0 4 -18 54l-173 476h103l137 -422h2l140 422h95l-188 -521q-38 -105 -65 -142q-49 -69 -131 -69q-24 0 -64 7z" />
    <glyph glyph-name="z" unicode="z" horiz-adv-x="500" 
d="M43 0v82l294 352h-280v76h389v-82l-294 -352h305v-76h-414z" />
    <glyph glyph-name="braceleft" unicode="{" horiz-adv-x="333" 
d="M314 756v-70h-53q-50 0 -50 -76v-181q0 -57 -36 -91q-25 -23 -56 -29v-2q31 -4 56 -26q36 -34 36 -97v-178q0 -76 50 -76h53v-70h-78q-41 0 -74 32q-39 36 -39 94v182q0 48 -28 78q-25 27 -58 27v70q33 0 59.5 27.5t26.5 72.5v187q0 58 39 94q33 32 74 32h78z" />
    <glyph glyph-name="bar" unicode="|" horiz-adv-x="222" 
d="M67 -12v762h88v-762h-88z" />
    <glyph glyph-name="braceright" unicode="}" horiz-adv-x="333" 
d="M19 -140v70h53q50 0 50 76v181q0 57 36 91q25 23 56 29v2q-31 4 -56 26q-36 34 -36 97v178q0 76 -50 76h-53v70h78q41 0 75 -32q38 -36 38 -94v-182q0 -48 28 -78q25 -27 58 -27v-70q-33 0 -58 -26q-28 -29 -28 -74v-187q0 -58 -38 -94q-34 -32 -75 -32h-78z" />
    <glyph glyph-name="asciitilde" unicode="~" horiz-adv-x="600" 
d="M495 333v0l36 -70q-45 -85 -125 -85q-41 0 -111 31q-84 37 -102 37q-40 0 -88 -73l-36 70q45 85 125 85q41 0 111 -31q84 -37 102 -37q40 0 88 73z" />
    <glyph glyph-name="exclamdown" unicode="&#xa1;" horiz-adv-x="389" 
d="M238 314l13 -502h-112l13 502h86zM139 398v112h112v-112h-112z" />
    <glyph glyph-name="cent" unicode="&#xa2;" 
d="M244 109l97 336q-70 -5 -113 -63q-39 -53 -39 -127q0 -92 55 -146zM174 -133l45 156q-61 34 -95.5 96t-34.5 136q0 117 72 192t188 75q9 0 14 -1l33 113h57l-35 -119q32 -7 45 -13l-8 -78q-30 13 -58 17l-105 -365q33 -12 67 -12q57 0 101 29l7 -84q-45 -21 -118 -21
q-43 0 -79 12l-39 -133h-57z" />
    <glyph glyph-name="sterling" unicode="&#xa3;" 
d="M59 0v88h91v260h-79v58h79v56q0 111 63.5 179.5t178.5 68.5q61 0 118 -19l-8 -93q-54 24 -100 24q-152 0 -152 -167v-49h161v-58h-161v-260h247v-88h-438z" />
    <glyph glyph-name="currency" unicode="&#xa4;" 
d="M24 146l56 57q-50 59 -50 146q0 94 50 148l-56 54l51 52l55 -55q60 49 148 49q87 0 150 -49l54 55l50 -52l-54 -54q48 -54 48 -148q0 -89 -48 -146l54 -57l-50 -51l-54 57q-59 -51 -150 -51t-148 51l-55 -57zM118 349q0 -69 47 -117.5t113 -48.5q68 0 114 49.5t46 116.5
t-46.5 116.5t-113.5 49.5t-113.5 -49t-46.5 -117z" />
    <glyph glyph-name="yen" unicode="&#xa5;" 
d="M229 0v162h-141v58h141v72l-8 16h-133v58h101l-183 332h111l164 -313l158 313h111l-181 -332h101v-58h-133l-8 -16v-72h141v-58h-141v-162h-100z" />
    <glyph glyph-name="brokenbar" unicode="&#xa6;" horiz-adv-x="222" 
d="M67 -12v277h88v-277h-88zM67 473v277h88v-277h-88z" />
    <glyph glyph-name="section" unicode="&#xa7;" 
d="M89 -99l9 92q67 -35 165 -35q48 0 81 22q38 25 38 69q0 42 -77 72q-131 50 -144 58q-77 45 -77 126q0 80 73 124q-69 38 -69 119q0 77 69 123q59 39 141 39q68 0 144 -19l-9 -91q-63 28 -122 28q-129 0 -129 -76q0 -48 78 -80q72 -28 145 -57q78 -44 78 -123
q0 -42 -19 -72q-15 -24 -52 -54q64 -41 64 -114q0 -88 -76 -136q-63 -40 -150 -40q-91 0 -161 25zM172 324q0 -50 74 -84q56 -21 113 -42q36 42 36 75q0 52 -73 85q-56 22 -113 44q-37 -28 -37 -78z" />
    <glyph glyph-name="dieresis" unicode="&#xa8;" horiz-adv-x="278" 
d="M10 588v100h94v-100h-94zM174 588v100h94v-100h-94z" />
    <glyph glyph-name="copyright" unicode="&#xa9;" horiz-adv-x="800" 
d="M509 285h73q-12 -73 -60 -114.5t-113 -41.5q-92 0 -148.5 62.5t-56.5 157.5q0 96 54.5 157t147.5 61q68 0 117.5 -39.5t58.5 -110.5h-73q-7 37 -35 58.5t-67 21.5q-61 0 -94 -40.5t-33 -105.5q0 -67 35 -109.5t94 -42.5q41 0 68 23t32 63zM39 349q0 149 106 255t255 106
t255 -106t106 -255t-106 -255t-255 -106t-255 106t-106 255zM127 349q0 -125 79 -208t194 -83t194 83t79 208t-79 208t-194 83t-194 -83t-79 -208z" />
    <glyph glyph-name="ordfeminine" unicode="&#xaa;" horiz-adv-x="361" 
d="M66 619l-3 63q55 28 117 28q77 0 112 -24q42 -30 42 -103v-128q0 -20 2 -40q1 -16 1 -19h-84v38h-2q-29 -46 -98 -46q-48 0 -84 20q-46 25 -46 76q0 56 62 83q45 20 106 20q41 0 61 -2q0 67 -78 67q-63 0 -108 -33zM212 535q-107 0 -107 -54q0 -35 59 -35q88 0 88 60v27
q-3 0 -16.5 1t-23.5 1z" />
    <glyph glyph-name="guillemotleft" unicode="&#xab;" 
d="M194 67l-143 202l143 202h88l-130 -202l130 -202h-88zM396 67l-143 202l143 202h88l-130 -202l130 -202h-88z" />
    <glyph glyph-name="logicalnot" unicode="&#xac;" horiz-adv-x="600" 
d="M47 314v88h506v-298h-88v210h-418z" />
    <glyph glyph-name="minus" unicode="&#xad;" horiz-adv-x="600" 
d="M47 209v88h506v-88h-506z" />
    <glyph glyph-name="minus" unicode="&#x2212;" horiz-adv-x="600" 
d="M47 209v88h506v-88h-506z" />
    <glyph glyph-name="registered" unicode="&#xae;" horiz-adv-x="800" 
d="M400 -12q-149 0 -255 106t-106 255t106 255t255 106t255 -106t106 -255t-106 -255t-255 -106zM400 58q115 0 194 83t79 208t-79 208t-194 83t-194 -83t-79 -208t79 -208t194 -83zM261 146v409h152q151 0 151 -120q0 -100 -107 -110l110 -179h-78l-106 176h-46v-176h-76z
M337 497v-117h67q41 0 59 10q25 14 25 51q0 56 -83 56h-68z" />
    <glyph glyph-name="macron" unicode="&#xaf;" horiz-adv-x="278" 
d="M-9 615v58h296v-58h-296z" />
    <glyph glyph-name="macron" unicode="&#x2c9;" horiz-adv-x="278" 
d="M-9 615v58h296v-58h-296z" />
    <glyph glyph-name="degree" unicode="&#xb0;" horiz-adv-x="400" 
d="M57 567q0 59 42 101t101 42t101 -42t42 -101t-42 -101t-101 -42t-101 42t-42 101zM121 567q0 -33 23 -56t56 -23t56 23t23 56t-23 56t-56 23t-56 -23t-23 -56z" />
    <glyph glyph-name="plusminus" unicode="&#xb1;" horiz-adv-x="600" 
d="M47 271v88h209v147h88v-147h209v-88h-209v-147h-88v147h-209zM47 0v88h506v-88h-506z" />
    <glyph glyph-name="twosuperior" unicode="&#xb2;" horiz-adv-x="361" 
d="M31 282v76q107 89 117 99q87 81 87 128q0 27 -28 43q-22 12 -52 12q-56 0 -104 -29l-6 74q59 25 125 25q64 0 105 -27q48 -33 48 -94q0 -55 -78 -139q-67 -72 -114 -96v-2h199v-70h-299z" />
    <glyph glyph-name="threesuperior" unicode="&#xb3;" horiz-adv-x="361" 
d="M93 466v70h46q34 0 63 14q36 16 36 43q0 26 -34 38q-24 9 -55 9q-46 0 -97 -22l-4 72q55 20 123 20q65 0 107 -26q48 -31 48 -87q0 -39 -32 -65q-27 -22 -68 -30v-2q104 -14 104 -105q0 -119 -185 -119q-55 0 -113 16l10 76q22 -22 94 -22q37 0 65 10q41 14 41 43
q0 32 -34 51q-29 16 -66 16h-49z" />
    <glyph glyph-name="acute" unicode="&#xb4;" horiz-adv-x="278" 
d="M73 581l89 144h109l-131 -144h-67z" />
    <glyph glyph-name="mu" unicode="&#xb5;" horiz-adv-x="611" 
d="M531 510v-510h-91v81h-2q-21 -43 -67 -68t-100 -25q-61 0 -97 20v-218h-94v720h94v-264q0 -93 23 -135q25 -45 85 -47q77 -2 118 57q37 55 37 153v236h94z" />
    <glyph glyph-name="mu" unicode="&#x3bc;" horiz-adv-x="611" 
d="M531 510v-510h-91v81h-2q-21 -43 -67 -68t-100 -25q-61 0 -97 20v-218h-94v720h94v-264q0 -93 23 -135q25 -45 85 -47q77 -2 118 57q37 55 37 153v236h94z" />
    <glyph glyph-name="paragraph" unicode="&#xb6;" horiz-adv-x="600" 
d="M236 -112v445q-99 0 -157.5 49.5t-58.5 129.5q0 186 236 186h271v-810h-88v740h-115v-740h-88z" />
    <glyph glyph-name="periodcentered" unicode="&#xb7;" horiz-adv-x="278" 
d="M80 304q0 24 18 41t42 17t41 -17t17 -41t-17 -42t-41 -18t-42 18t-18 42z" />
    <glyph glyph-name="periodcentered" unicode="&#x2219;" horiz-adv-x="278" 
d="M80 304q0 24 18 41t42 17t41 -17t17 -41t-17 -42t-41 -18t-42 18t-18 42z" />
    <glyph glyph-name="cedilla" unicode="&#xb8;" horiz-adv-x="278" 
d="M200 0h47l-46 -60l2 -2q13 5 30 5q35 0 59 -20t24 -53q0 -46 -43 -71q-37 -21 -88 -21q-46 0 -84 21l18 34q37 -15 65 -15q56 0 56 46q0 39 -46 39q-19 0 -41 -8l-17 19z" />
    <glyph glyph-name="onesuperior" unicode="&#xb9;" horiz-adv-x="361" 
d="M154 282v346l-70 -55l-34 46l111 85h81v-422h-88z" />
    <glyph glyph-name="ordmasculine" unicode="&#xba;" horiz-adv-x="397" 
d="M198 388q-76 0 -125 48q-47 45 -47 113q0 71 47.5 116t124.5 45q78 0 125 -45t47 -116q0 -68 -47 -113q-49 -48 -125 -48zM108 549q0 -103 90 -103t90 103q0 45 -21 73q-24 30 -69 30q-44 0 -67 -29t-23 -74z" />
    <glyph glyph-name="guillemotright" unicode="&#xbb;" 
d="M362 471l143 -202l-143 -202h-88l130 202l-130 202h88zM160 471l143 -202l-143 -202h-88l130 202l-130 202h88z" />
    <glyph glyph-name="onequarter" unicode="&#xbc;" horiz-adv-x="834" 
d="M143 -22l433 742h72l-433 -742h-72zM137 282v346l-70 -55l-34 46l111 85h81v-422h-88zM661 153v199h-2l-128 -199h130zM661 0v83h-212v61l184 278h116v-269h52v-70h-52v-83h-88z" />
    <glyph glyph-name="onehalf" unicode="&#xbd;" horiz-adv-x="834" 
d="M112 -22l433 742h72l-433 -742h-72zM137 282v346l-70 -55l-34 46l111 85h81v-422h-88zM502 0v76q107 89 117 99q87 81 87 128q0 27 -28 43q-22 12 -52 12q-56 0 -104 -29l-6 74q59 25 125 25q64 0 105 -27q48 -33 48 -94q0 -55 -78 -139q-67 -72 -114 -96v-2h199v-70
h-299z" />
    <glyph glyph-name="threequarters" unicode="&#xbe;" horiz-adv-x="834" 
d="M186 -22l433 742h72l-433 -742h-72zM93 466v70h46q34 0 63 14q36 16 36 43q0 26 -34 38q-24 9 -55 9q-46 0 -97 -22l-4 72q55 20 123 20q65 0 107 -26q48 -31 48 -87q0 -39 -32 -65q-27 -22 -68 -30v-2q104 -14 104 -105q0 -119 -185 -119q-55 0 -113 16l10 76
q22 -22 94 -22q37 0 65 10q41 14 41 43q0 32 -34 51q-29 16 -66 16h-49zM661 153v199h-2l-128 -199h130zM661 0v83h-212v61l184 278h116v-269h52v-70h-52v-83h-88z" />
    <glyph glyph-name="questiondown" unicode="&#xbf;" horiz-adv-x="500" 
d="M296 314v-21q0 -47 -13 -77t-49 -72q-45 -52 -55 -69q-29 -44 -29 -86q0 -50 37 -77q33 -24 84 -24q93 0 148 40l7 -95q-76 -33 -166 -33q-88 0 -149 46q-67 51 -67 136q0 65 50 132q45 57 90 113q18 30 18 69v18h94zM305 510v-112h-112v112h112z" />
    <glyph glyph-name="Agrave" unicode="&#xc0;" horiz-adv-x="722" 
d="M12 0l298 698h105l295 -698h-109l-71 176h-342l-71 -176h-105zM498 258l-139 346l-139 -346h278zM338 893l89 -144h-67l-131 144h109z" />
    <glyph glyph-name="Aacute" unicode="&#xc1;" horiz-adv-x="722" 
d="M12 0l298 698h105l295 -698h-109l-71 176h-342l-71 -176h-105zM498 258l-139 346l-139 -346h278zM295 749l89 144h109l-131 -144h-67z" />
    <glyph glyph-name="Acircumflex" unicode="&#xc2;" horiz-adv-x="722" 
d="M12 0l298 698h105l295 -698h-109l-71 176h-342l-71 -176h-105zM498 258l-139 346l-139 -346h278zM216 749l99 144h91l100 -144h-80l-66 98l-65 -98h-79z" />
    <glyph glyph-name="Atilde" unicode="&#xc3;" horiz-adv-x="722" 
d="M12 0l298 698h105l295 -698h-109l-71 176h-342l-71 -176h-105zM498 258l-139 346l-139 -346h278zM237 754v0h-46q16 112 94 112q27 0 80.5 -23t73.5 -23q40 -3 46 46h46q-16 -112 -94 -112q-27 0 -80.5 23t-73.5 23q-40 3 -46 -46z" />
    <glyph glyph-name="Adieresis" unicode="&#xc4;" horiz-adv-x="722" 
d="M12 0l298 698h105l295 -698h-109l-71 176h-342l-71 -176h-105zM498 258l-139 346l-139 -346h278zM232 756v100h94v-100h-94zM396 756v100h94v-100h-94z" />
    <glyph glyph-name="Aring" unicode="&#xc5;" horiz-adv-x="722" 
d="M12 0l298 698h105l295 -698h-109l-71 176h-342l-71 -176h-105zM498 258l-139 346l-139 -346h278zM361 935q41 0 71.5 -30.5t30.5 -71.5t-30.5 -71.5t-71.5 -30.5t-71.5 30t-30.5 72t30 72t72 30zM361 895q-25 0 -43.5 -18.5t-18.5 -43.5t18.5 -43.5t43.5 -18.5
q24 0 43 19t19 43q0 25 -18.5 43.5t-43.5 18.5z" />
    <glyph glyph-name="AE" unicode="&#xc6;" horiz-adv-x="944" 
d="M2 0l422 698h439v-88h-277l13 -204h246v-88h-241l14 -230h255v-88h-347l-11 176h-297l-105 -176h-111zM510 258l-22 370h-2l-220 -370h244z" />
    <glyph glyph-name="Ccedilla" unicode="&#xc7;" horiz-adv-x="611" 
d="M579 680l-8 -97q-66 39 -144 39q-120 0 -194 -77t-74 -196q0 -121 76 -197t187 -76q95 0 152 34l6 -97q-60 -25 -159 -25q-166 0 -267 99t-101 265q0 160 104 259t265 99q89 0 157 -30zM359 0h47l-46 -60l2 -2q13 5 30 5q35 0 59 -20t24 -53q0 -46 -43 -71
q-37 -21 -88 -21q-46 0 -84 21l18 34q37 -15 65 -15q56 0 56 46q0 39 -46 39q-19 0 -41 -8l-17 19z" />
    <glyph glyph-name="Egrave" unicode="&#xc8;" 
d="M94 0v698h391v-88h-291v-204h265v-88h-265v-230h291v-88h-391zM255 893l89 -144h-67l-131 144h109z" />
    <glyph glyph-name="Eacute" unicode="&#xc9;" 
d="M94 0v698h391v-88h-291v-204h265v-88h-265v-230h291v-88h-391zM212 749l89 144h109l-131 -144h-67z" />
    <glyph glyph-name="Ecircumflex" unicode="&#xca;" 
d="M94 0v698h391v-88h-291v-204h265v-88h-265v-230h291v-88h-391zM133 749l99 144h91l100 -144h-80l-66 98l-65 -98h-79z" />
    <glyph glyph-name="Edieresis" unicode="&#xcb;" 
d="M94 0v698h391v-88h-291v-204h265v-88h-265v-230h291v-88h-391zM149 756v100h94v-100h-94zM313 756v100h94v-100h-94z" />
    <glyph glyph-name="Igrave" unicode="&#xcc;" horiz-adv-x="278" 
d="M89 0v698h100v-698h-100zM116 893l89 -144h-67l-131 144h109z" />
    <glyph glyph-name="Iacute" unicode="&#xcd;" horiz-adv-x="278" 
d="M89 0v698h100v-698h-100zM73 749l89 144h109l-131 -144h-67z" />
    <glyph glyph-name="Icircumflex" unicode="&#xce;" horiz-adv-x="278" 
d="M89 0v698h100v-698h-100zM-6 749l99 144h91l100 -144h-80l-66 98l-65 -98h-79z" />
    <glyph glyph-name="Idieresis" unicode="&#xcf;" horiz-adv-x="278" 
d="M89 0v698h100v-698h-100zM10 756v100h94v-100h-94zM174 756v100h94v-100h-94z" />
    <glyph glyph-name="Eth" unicode="&#xd0;" horiz-adv-x="722" 
d="M183 610v-204h183v-64h-183v-254h105q267 0 267 263q0 113 -71 186t-186 73h-115zM83 0v342h-68v64h68v292h206q160 0 264 -91q108 -95 108 -252q0 -173 -98.5 -264t-273.5 -91h-206z" />
    <glyph glyph-name="Ntilde" unicode="&#xd1;" horiz-adv-x="722" 
d="M88 0v698h136l308 -562h2v562h100v-698h-128l-316 574h-2v-574h-100zM237 754v0h-46q16 112 94 112q27 0 80.5 -23t73.5 -23q40 -3 46 46h46q-16 -112 -94 -112q-27 0 -80.5 23t-73.5 23q-40 3 -46 -46z" />
    <glyph glyph-name="Ograve" unicode="&#xd2;" horiz-adv-x="778" 
d="M159 349q0 -114 55 -189q62 -84 175 -84t175 84q55 75 55 189t-57 190q-63 83 -173 83t-173 -83q-57 -76 -57 -190zM53 349q0 159 89 258q91 103 247 103t248 -103q88 -99 88 -258q0 -162 -88 -260q-91 -101 -248 -101t-248 101q-88 98 -88 260zM366 893l89 -144h-67
l-131 144h109z" />
    <glyph glyph-name="Oacute" unicode="&#xd3;" horiz-adv-x="778" 
d="M159 349q0 -114 55 -189q62 -84 175 -84t175 84q55 75 55 189t-57 190q-63 83 -173 83t-173 -83q-57 -76 -57 -190zM53 349q0 159 89 258q91 103 247 103t248 -103q88 -99 88 -258q0 -162 -88 -260q-91 -101 -248 -101t-248 101q-88 98 -88 260zM323 749l89 144h109
l-131 -144h-67z" />
    <glyph glyph-name="Ocircumflex" unicode="&#xd4;" horiz-adv-x="778" 
d="M159 349q0 -114 55 -189q62 -84 175 -84t175 84q55 75 55 189t-57 190q-63 83 -173 83t-173 -83q-57 -76 -57 -190zM53 349q0 159 89 258q91 103 247 103t248 -103q88 -99 88 -258q0 -162 -88 -260q-91 -101 -248 -101t-248 101q-88 98 -88 260zM244 749l99 144h91
l100 -144h-80l-66 98l-65 -98h-79z" />
    <glyph glyph-name="Otilde" unicode="&#xd5;" horiz-adv-x="778" 
d="M159 349q0 -114 55 -189q62 -84 175 -84t175 84q55 75 55 189t-57 190q-63 83 -173 83t-173 -83q-57 -76 -57 -190zM53 349q0 159 89 258q91 103 247 103t248 -103q88 -99 88 -258q0 -162 -88 -260q-91 -101 -248 -101t-248 101q-88 98 -88 260zM265 754v0h-46
q16 112 94 112q27 0 80.5 -23t73.5 -23q40 -3 46 46h46q-16 -112 -94 -112q-27 0 -80.5 23t-73.5 23q-40 3 -46 -46z" />
    <glyph glyph-name="Odieresis" unicode="&#xd6;" horiz-adv-x="778" 
d="M159 349q0 -114 55 -189q62 -84 175 -84t175 84q55 75 55 189t-57 190q-63 83 -173 83t-173 -83q-57 -76 -57 -190zM53 349q0 159 89 258q91 103 247 103t248 -103q88 -99 88 -258q0 -162 -88 -260q-91 -101 -248 -101t-248 101q-88 98 -88 260zM260 756v100h94v-100h-94
zM424 756v100h94v-100h-94z" />
    <glyph glyph-name="multiply" unicode="&#xd7;" horiz-adv-x="600" 
d="M238 253l-170 170l62 62l170 -171l170 171l62 -62l-171 -170l171 -170l-62 -62l-170 171l-170 -171l-62 62z" />
    <glyph glyph-name="Oslash" unicode="&#xd8;" horiz-adv-x="778" 
d="M214 160l318 412q-58 50 -143 50q-110 0 -173 -83q-57 -76 -57 -190q0 -115 55 -189zM94 5l57 74q-98 98 -98 270q0 159 89 258q91 103 247 103q116 0 202 -62l53 69l36 -28l-54 -71q99 -101 99 -269q0 -162 -88 -260q-91 -101 -248 -101q-121 0 -203 61l-54 -70z
M563 537l-317 -411q56 -50 143 -50q113 0 175 84q55 75 55 189q0 112 -56 188z" />
    <glyph glyph-name="Ugrave" unicode="&#xd9;" horiz-adv-x="722" 
d="M632 698v-409q0 -146 -70.5 -223.5t-200.5 -77.5t-200.5 77.5t-70.5 223.5v409h100v-396q0 -226 171 -226t171 226v396h100zM338 893l89 -144h-67l-131 144h109z" />
    <glyph glyph-name="Uacute" unicode="&#xda;" horiz-adv-x="722" 
d="M632 698v-409q0 -146 -70.5 -223.5t-200.5 -77.5t-200.5 77.5t-70.5 223.5v409h100v-396q0 -226 171 -226t171 226v396h100zM295 749l89 144h109l-131 -144h-67z" />
    <glyph glyph-name="Ucircumflex" unicode="&#xdb;" horiz-adv-x="722" 
d="M632 698v-409q0 -146 -70.5 -223.5t-200.5 -77.5t-200.5 77.5t-70.5 223.5v409h100v-396q0 -226 171 -226t171 226v396h100zM216 749l99 144h91l100 -144h-80l-66 98l-65 -98h-79z" />
    <glyph glyph-name="Udieresis" unicode="&#xdc;" horiz-adv-x="722" 
d="M632 698v-409q0 -146 -70.5 -223.5t-200.5 -77.5t-200.5 77.5t-70.5 223.5v409h100v-396q0 -226 171 -226t171 226v396h100zM232 756v100h94v-100h-94zM396 756v100h94v-100h-94z" />
    <glyph glyph-name="Yacute" unicode="&#xdd;" horiz-adv-x="667" 
d="M284 0v292l-273 406h117l208 -313l203 313h117l-272 -406v-292h-100zM268 749l89 144h109l-131 -144h-67z" />
    <glyph glyph-name="Thorn" unicode="&#xde;" 
d="M83 0v698h100v-102h83q262 0 262 -209q0 -108 -76 -163q-65 -47 -171 -47h-98v-177h-100zM183 508v-243h99q55 0 93 27q47 33 47 96q0 60 -54 93q-43 27 -100 27h-85z" />
    <glyph glyph-name="germandbls" unicode="&#xdf;" horiz-adv-x="611" 
d="M174 0h-94v474q0 142 55 212q60 76 190 76q79 0 138 -49q65 -55 65 -147q0 -127 -117 -163v-2q68 -8 110 -63q39 -52 39 -121q0 -96 -58 -158q-61 -65 -163 -65q-49 0 -97 14v79q39 -17 79 -17q60 0 99.5 38t39.5 105q0 81 -53 116q-44 28 -135 28v76q76 0 113 27
q43 31 43 103q0 51 -30 87t-82 36q-77 0 -113 -65q-29 -51 -29 -132v-489z" />
    <glyph glyph-name="agrave" unicode="&#xe0;" 
d="M109 394l-5 80q81 48 168 48q107 0 156 -52.5t49 -158.5v-211q0 -70 4 -100h-88v66h-2q-55 -78 -158 -78q-86 0 -135 38q-52 41 -52 121q0 87 82 132q65 36 155 36q63 0 100 -2q0 68 -28.5 100.5t-97.5 32.5q-86 0 -148 -52zM383 198v45q-10 0 -30 1t-30 1
q-177 0 -177 -98q0 -38 31 -62q28 -21 64 -21q68 0 106 39q36 36 36 95zM255 725l89 -144h-67l-131 144h109z" />
    <glyph glyph-name="aacute" unicode="&#xe1;" 
d="M109 394l-5 80q81 48 168 48q107 0 156 -52.5t49 -158.5v-211q0 -70 4 -100h-88v66h-2q-55 -78 -158 -78q-86 0 -135 38q-52 41 -52 121q0 87 82 132q65 36 155 36q63 0 100 -2q0 68 -28.5 100.5t-97.5 32.5q-86 0 -148 -52zM383 198v45q-10 0 -30 1t-30 1
q-177 0 -177 -98q0 -38 31 -62q28 -21 64 -21q68 0 106 39q36 36 36 95zM212 581l89 144h109l-131 -144h-67z" />
    <glyph glyph-name="acircumflex" unicode="&#xe2;" 
d="M109 394l-5 80q81 48 168 48q107 0 156 -52.5t49 -158.5v-211q0 -70 4 -100h-88v66h-2q-55 -78 -158 -78q-86 0 -135 38q-52 41 -52 121q0 87 82 132q65 36 155 36q63 0 100 -2q0 68 -28.5 100.5t-97.5 32.5q-86 0 -148 -52zM383 198v45q-10 0 -30 1t-30 1
q-177 0 -177 -98q0 -38 31 -62q28 -21 64 -21q68 0 106 39q36 36 36 95zM133 581l99 144h91l100 -144h-80l-66 98l-65 -98h-79z" />
    <glyph glyph-name="atilde" unicode="&#xe3;" 
d="M109 394l-5 80q81 48 168 48q107 0 156 -52.5t49 -158.5v-211q0 -70 4 -100h-88v66h-2q-55 -78 -158 -78q-86 0 -135 38q-52 41 -52 121q0 87 82 132q65 36 155 36q63 0 100 -2q0 68 -28.5 100.5t-97.5 32.5q-86 0 -148 -52zM383 198v45q-10 0 -30 1t-30 1
q-177 0 -177 -98q0 -38 31 -62q28 -21 64 -21q68 0 106 39q36 36 36 95zM154 586v0h-46q16 112 94 112q27 0 80.5 -23t73.5 -23q40 -3 46 46h46q-16 -112 -94 -112q-27 0 -80.5 23t-73.5 23q-40 3 -46 -46z" />
    <glyph glyph-name="adieresis" unicode="&#xe4;" 
d="M109 394l-5 80q81 48 168 48q107 0 156 -52.5t49 -158.5v-211q0 -70 4 -100h-88v66h-2q-55 -78 -158 -78q-86 0 -135 38q-52 41 -52 121q0 87 82 132q65 36 155 36q63 0 100 -2q0 68 -28.5 100.5t-97.5 32.5q-86 0 -148 -52zM383 198v45q-10 0 -30 1t-30 1
q-177 0 -177 -98q0 -38 31 -62q28 -21 64 -21q68 0 106 39q36 36 36 95zM149 588v100h94v-100h-94zM313 588v100h94v-100h-94z" />
    <glyph glyph-name="aring" unicode="&#xe5;" 
d="M109 394l-5 80q81 48 168 48q107 0 156 -52.5t49 -158.5v-211q0 -70 4 -100h-88v66h-2q-55 -78 -158 -78q-86 0 -135 38q-52 41 -52 121q0 87 82 132q65 36 155 36q63 0 100 -2q0 68 -28.5 100.5t-97.5 32.5q-86 0 -148 -52zM383 198v45q-10 0 -30 1t-30 1
q-177 0 -177 -98q0 -38 31 -62q28 -21 64 -21q68 0 106 39q36 36 36 95zM278 767q41 0 71.5 -30.5t30.5 -71.5t-30.5 -71.5t-71.5 -30.5t-71.5 30t-30.5 72t30 72t72 30zM278 727q-25 0 -43.5 -18.5t-18.5 -43.5t18.5 -43.5t43.5 -18.5q24 0 43 19t19 43q0 25 -18.5 43.5
t-43.5 18.5z" />
    <glyph glyph-name="ae" unicode="&#xe6;" horiz-adv-x="889" 
d="M107 394l-5 79q77 49 169 49q127 0 176 -89q50 89 177 89q120 0 177 -88q47 -73 47 -200h-361q0 -71 47.5 -120.5t119.5 -49.5q75 0 141 53v-95q-75 -34 -146 -34q-177 0 -220 119h-2q-15 -57 -72 -90q-51 -29 -117 -29q-77 0 -134 43q-63 46 -63 120q0 93 90 135
q63 29 156 29q15 0 53 -3q34 -3 53 -2q0 136 -144 136q-70 0 -142 -52zM141 148q0 -40 31 -63q28 -21 69 -21q66 0 109 52.5t43 125.5q-4 0 -34 1.5t-56 1.5q-162 0 -162 -97zM487 304h261q0 54 -34 96q-36 46 -91 46q-60 0 -98 -41t-38 -101z" />
    <glyph glyph-name="ccedilla" unicode="&#xe7;" horiz-adv-x="444" 
d="M412 502l-8 -78q-53 22 -102 22q-75 0 -121 -59q-43 -55 -43 -132t40 -130q46 -61 130 -61q57 0 101 29l7 -84q-45 -21 -118 -21q-113 0 -188 79q-72 76 -72 188q0 117 72 192t188 75q65 0 114 -20zM256 0h47l-46 -60l2 -2q13 5 30 5q35 0 59 -20t24 -53q0 -46 -43 -71
q-37 -21 -88 -21q-46 0 -84 21l18 34q37 -15 65 -15q56 0 56 46q0 39 -46 39q-19 0 -41 -8l-17 19z" />
    <glyph glyph-name="egrave" unicode="&#xe8;" 
d="M471 115v-94q-91 -33 -161 -33q-132 0 -200 76q-64 71 -64 200q0 114 66 186t173 72q225 0 225 -288h-364q0 -74 51 -123q48 -47 117 -47q42 0 93 18q44 16 64 33zM146 304h264q0 61 -34 101.5t-93 40.5q-63 0 -100 -46q-31 -38 -37 -96zM255 725l89 -144h-67l-131 144
h109z" />
    <glyph glyph-name="eacute" unicode="&#xe9;" 
d="M471 115v-94q-91 -33 -161 -33q-132 0 -200 76q-64 71 -64 200q0 114 66 186t173 72q225 0 225 -288h-364q0 -74 51 -123q48 -47 117 -47q42 0 93 18q44 16 64 33zM146 304h264q0 61 -34 101.5t-93 40.5q-63 0 -100 -46q-31 -38 -37 -96zM212 581l89 144h109l-131 -144
h-67z" />
    <glyph glyph-name="ecircumflex" unicode="&#xea;" 
d="M471 115v-94q-91 -33 -161 -33q-132 0 -200 76q-64 71 -64 200q0 114 66 186t173 72q225 0 225 -288h-364q0 -74 51 -123q48 -47 117 -47q42 0 93 18q44 16 64 33zM146 304h264q0 61 -34 101.5t-93 40.5q-63 0 -100 -46q-31 -38 -37 -96zM133 581l99 144h91l100 -144h-80
l-66 98l-65 -98h-79z" />
    <glyph glyph-name="edieresis" unicode="&#xeb;" 
d="M471 115v-94q-91 -33 -161 -33q-132 0 -200 76q-64 71 -64 200q0 114 66 186t173 72q225 0 225 -288h-364q0 -74 51 -123q48 -47 117 -47q42 0 93 18q44 16 64 33zM146 304h264q0 61 -34 101.5t-93 40.5q-63 0 -100 -46q-31 -38 -37 -96zM149 588v100h94v-100h-94z
M313 588v100h94v-100h-94z" />
    <glyph glyph-name="igrave" unicode="&#xec;" horiz-adv-x="278" 
d="M92 0v510h94v-510h-94zM116 725l89 -144h-67l-131 144h109z" />
    <glyph glyph-name="iacute" unicode="&#xed;" horiz-adv-x="278" 
d="M92 0v510h94v-510h-94zM73 581l89 144h109l-131 -144h-67z" />
    <glyph glyph-name="icircumflex" unicode="&#xee;" horiz-adv-x="278" 
d="M92 0v510h94v-510h-94zM-6 581l99 144h91l100 -144h-80l-66 98l-65 -98h-79z" />
    <glyph glyph-name="idieresis" unicode="&#xef;" horiz-adv-x="278" 
d="M92 0v510h94v-510h-94zM10 588v100h94v-100h-94zM174 588v100h94v-100h-94z" />
    <glyph glyph-name="eth" unicode="&#xf0;" horiz-adv-x="611" 
d="M146 255q0 -76 38 -130q44 -61 122 -61q77 0 121 61q38 54 38 130q0 77 -42 132q-45 59 -117 59t-118 -59q-42 -55 -42 -132zM108 592l110 59q-55 33 -125 58l72 53q75 -27 137 -66l122 66l46 -53l-104 -56q90 -69 141 -164q58 -108 58 -234q0 -112 -72 -188
q-74 -79 -187 -79t-188 79q-72 76 -72 188q0 117 72 192t188 75q47 0 84 -22h2q-47 63 -109 108l-129 -69z" />
    <glyph glyph-name="ntilde" unicode="&#xf1;" horiz-adv-x="611" 
d="M80 0v510h91v-81h2q21 43 67 68t100 25q191 0 191 -219v-303h-94v264q0 93 -24 136.5t-84 45.5q-77 2 -118 -57q-37 -55 -37 -153v-236h-94zM182 586v0h-46q16 112 94 112q27 0 80.5 -23t73.5 -23q40 -3 46 46h46q-16 -112 -94 -112q-27 0 -80.5 23t-73.5 23
q-40 3 -46 -46z" />
    <glyph glyph-name="ograve" unicode="&#xf2;" horiz-adv-x="611" 
d="M46 255q0 117 72 192t188 75q115 0 187 -75t72 -192q0 -112 -72 -188q-74 -79 -187 -79t-188 79q-72 76 -72 188zM146 255q0 -76 38 -130q44 -61 122 -61q77 0 121 61q38 54 38 130q0 77 -42 132q-45 59 -117 59t-118 -59q-42 -55 -42 -132zM283 725l89 -144h-67
l-131 144h109z" />
    <glyph glyph-name="oacute" unicode="&#xf3;" horiz-adv-x="611" 
d="M46 255q0 117 72 192t188 75q115 0 187 -75t72 -192q0 -112 -72 -188q-74 -79 -187 -79t-188 79q-72 76 -72 188zM146 255q0 -76 38 -130q44 -61 122 -61q77 0 121 61q38 54 38 130q0 77 -42 132q-45 59 -117 59t-118 -59q-42 -55 -42 -132zM240 581l89 144h109
l-131 -144h-67z" />
    <glyph glyph-name="ocircumflex" unicode="&#xf4;" horiz-adv-x="611" 
d="M46 255q0 117 72 192t188 75q115 0 187 -75t72 -192q0 -112 -72 -188q-74 -79 -187 -79t-188 79q-72 76 -72 188zM146 255q0 -76 38 -130q44 -61 122 -61q77 0 121 61q38 54 38 130q0 77 -42 132q-45 59 -117 59t-118 -59q-42 -55 -42 -132zM161 581l99 144h91l100 -144
h-80l-66 98l-65 -98h-79z" />
    <glyph glyph-name="otilde" unicode="&#xf5;" horiz-adv-x="611" 
d="M46 255q0 117 72 192t188 75q115 0 187 -75t72 -192q0 -112 -72 -188q-74 -79 -187 -79t-188 79q-72 76 -72 188zM146 255q0 -76 38 -130q44 -61 122 -61q77 0 121 61q38 54 38 130q0 77 -42 132q-45 59 -117 59t-118 -59q-42 -55 -42 -132zM182 586v0h-46q16 112 94 112
q27 0 80.5 -23t73.5 -23q40 -3 46 46h46q-16 -112 -94 -112q-27 0 -80.5 23t-73.5 23q-40 3 -46 -46z" />
    <glyph glyph-name="odieresis" unicode="&#xf6;" horiz-adv-x="611" 
d="M46 255q0 117 72 192t188 75q115 0 187 -75t72 -192q0 -112 -72 -188q-74 -79 -187 -79t-188 79q-72 76 -72 188zM146 255q0 -76 38 -130q44 -61 122 -61q77 0 121 61q38 54 38 130q0 77 -42 132q-45 59 -117 59t-118 -59q-42 -55 -42 -132zM177 588v100h94v-100h-94z
M341 588v100h94v-100h-94z" />
    <glyph glyph-name="divide" unicode="&#xf7;" horiz-adv-x="600" 
d="M47 209v88h506v-88h-506zM224 460q0 32 23 54.5t54 22.5q30 0 53 -23t23 -54q0 -29 -23 -52.5t-52 -23.5q-32 0 -55 22.5t-23 53.5zM224 46q0 31 22.5 53.5t54.5 22.5q30 0 53 -22.5t23 -53.5q0 -29 -23 -53t-52 -24q-32 0 -55 23t-23 54z" />
    <glyph glyph-name="oslash" unicode="&#xf8;" horiz-adv-x="611" 
d="M179 135l224 273q-40 38 -97 38q-72 0 -118 -59q-42 -55 -42 -132q0 -70 33 -120zM429 378l-225 -275q41 -39 102 -39q77 0 121 61q38 54 38 130q0 70 -36 123zM64 -6l57 71q-75 77 -75 190q0 117 72 192t188 75q90 0 153 -46l53 65l30 -25l-53 -65q76 -74 76 -196
q0 -112 -72 -188q-74 -79 -187 -79q-89 0 -155 50l-57 -69z" />
    <glyph glyph-name="ugrave" unicode="&#xf9;" horiz-adv-x="611" 
d="M531 510v-510h-91v81h-2q-21 -43 -67 -68t-100 -25q-191 0 -191 219v303h94v-264q0 -93 23 -135q25 -45 85 -47q77 -2 118 57q37 55 37 153v236h94zM283 725l89 -144h-67l-131 144h109z" />
    <glyph glyph-name="uacute" unicode="&#xfa;" horiz-adv-x="611" 
d="M531 510v-510h-91v81h-2q-21 -43 -67 -68t-100 -25q-191 0 -191 219v303h94v-264q0 -93 23 -135q25 -45 85 -47q77 -2 118 57q37 55 37 153v236h94zM240 581l89 144h109l-131 -144h-67z" />
    <glyph glyph-name="ucircumflex" unicode="&#xfb;" horiz-adv-x="611" 
d="M531 510v-510h-91v81h-2q-21 -43 -67 -68t-100 -25q-191 0 -191 219v303h94v-264q0 -93 23 -135q25 -45 85 -47q77 -2 118 57q37 55 37 153v236h94zM161 581l99 144h91l100 -144h-80l-66 98l-65 -98h-79z" />
    <glyph glyph-name="udieresis" unicode="&#xfc;" horiz-adv-x="611" 
d="M531 510v-510h-91v81h-2q-21 -43 -67 -68t-100 -25q-191 0 -191 219v303h94v-264q0 -93 23 -135q25 -45 85 -47q77 -2 118 57q37 55 37 153v236h94zM177 588v100h94v-100h-94zM341 588v100h94v-100h-94z" />
    <glyph glyph-name="yacute" unicode="&#xfd;" horiz-adv-x="500" 
d="M36 -215l6 77q24 -8 44 -8q53 0 88 59q24 43 24 67q0 4 -18 54l-173 476h103l137 -422h2l140 422h95l-188 -521q-38 -105 -65 -142q-49 -69 -131 -69q-24 0 -64 7zM184 581l89 144h109l-131 -144h-67z" />
    <glyph glyph-name="thorn" unicode="&#xfe;" horiz-adv-x="611" 
d="M80 -210v960h94v-310h2q51 82 169 82q106 0 166 -78q54 -70 54 -180q0 -115 -52 -190q-59 -86 -167 -86q-119 0 -170 82h-2v-280h-94zM465 257q0 78 -32 129q-37 60 -108 60q-72 0 -114 -60q-37 -54 -37 -132q0 -73 35 -127q42 -63 115 -63q69 0 108 66q33 56 33 127z
" />
    <glyph glyph-name="ydieresis" unicode="&#xff;" horiz-adv-x="500" 
d="M36 -215l6 77q24 -8 44 -8q53 0 88 59q24 43 24 67q0 4 -18 54l-173 476h103l137 -422h2l140 422h95l-188 -521q-38 -105 -65 -142q-49 -69 -131 -69q-24 0 -64 7zM121 588v100h94v-100h-94zM285 588v100h94v-100h-94z" />
    <glyph glyph-name="dotlessi" unicode="&#x131;" horiz-adv-x="278" 
d="M92 0v510h94v-510h-94z" />
    <glyph glyph-name="Lslash" unicode="&#x141;" horiz-adv-x="500" 
d="M88 0v236l-64 -38v72l64 38v390h100v-332l196 115v-72l-196 -115v-206h292v-88h-392z" />
    <glyph glyph-name="lslash" unicode="&#x142;" horiz-adv-x="278" 
d="M92 0v340l-64 -51v71l64 51v339h94v-265l64 51v-71l-64 -51v-414h-94z" />
    <glyph glyph-name="OE" unicode="&#x152;" horiz-adv-x="944" 
d="M493 88v522q-40 6 -61 6q-128 0 -199 -66q-74 -68 -74 -192q0 -130 77 -204q74 -72 197 -72q36 0 60 6zM875 698v-88h-282v-204h262v-88h-262v-230h289v-88h-290q-26 0 -78 -3t-78 -3q-170 0 -275 96q-108 99 -108 268q0 158 106.5 252t278.5 94q25 0 73.5 -3t72.5 -3
h291z" />
    <glyph glyph-name="oe" unicode="&#x153;" horiz-adv-x="944" 
d="M850 117v-95q-75 -34 -146 -34q-159 0 -210 110q-26 -56 -86 -85q-52 -25 -114 -25q-116 0 -184.5 75t-68.5 192q0 108 68 185q72 82 185 82q148 0 203 -100q48 100 182 100q120 0 177 -88q47 -73 47 -200h-361q0 -71 47.5 -120.5t119.5 -49.5q75 0 141 53zM141 255
q0 -82 35 -133q41 -58 119 -58q70 0 114 61q39 56 39 130q0 72 -37 127q-43 64 -116 64q-74 0 -117 -64q-37 -55 -37 -127zM542 304h261q0 54 -34 96q-36 46 -91 46q-60 0 -98 -41t-38 -101z" />
    <glyph glyph-name="Scaron" unicode="&#x160;" horiz-adv-x="500" 
d="M420 685l-14 -92q-74 29 -131 29q-122 0 -122 -93q0 -53 78 -95q135 -72 144 -79q78 -60 78 -159q0 -106 -75 -160q-67 -48 -180 -48q-54 0 -143 29l10 93q83 -34 145 -34q51 0 90 26q47 32 47 88q0 63 -78 107l-144 76q-78 55 -78 147q0 90 65 142q61 48 159 48
q78 0 149 -25zM395 893l-99 -144h-91l-100 144h80l66 -98l65 98h79z" />
    <glyph glyph-name="scaron" unicode="&#x161;" horiz-adv-x="389" 
d="M37 16l5 84q56 -36 117 -36q38 0 64 16q32 19 32 57q0 37 -57 69q-53 28 -107 57q-57 41 -57 102q0 76 52 118q48 39 128 39q50 0 117 -20l-8 -82q-15 9 -48 17.5t-51 8.5q-38 0 -64 -16t-26 -46q0 -42 57 -71q53 -28 107 -55q57 -41 57 -111q0 -77 -55 -120
q-49 -39 -123 -39q-88 0 -140 28zM340 725l-99 -144h-91l-100 144h80l66 -98l65 98h79z" />
    <glyph glyph-name="Ydieresis" unicode="&#x178;" horiz-adv-x="667" 
d="M284 0v292l-273 406h117l208 -313l203 313h117l-272 -406v-292h-100zM205 756v100h94v-100h-94zM369 756v100h94v-100h-94z" />
    <glyph glyph-name="Zcaron" unicode="&#x17d;" 
d="M32 0v90l362 520h-350v88h465v-90l-361 -520h367v-88h-483zM423 893l-99 -144h-91l-100 144h80l66 -98l65 98h79z" />
    <glyph glyph-name="zcaron" unicode="&#x17e;" horiz-adv-x="500" 
d="M43 0v82l294 352h-280v76h389v-82l-294 -352h305v-76h-414zM395 725l-99 -144h-91l-100 144h80l66 -98l65 98h79z" />
    <glyph glyph-name="florin" unicode="&#x192;" 
d="M475 414l-14 -70h-126l-69 -368q-19 -102 -48 -142q-41 -56 -134 -56q-28 0 -51 5l16 81q12 -4 30 -4q43 0 64 33q13 22 23 73l71 378h-112l13 70h112l21 109q17 89 49 130q43 57 130 57q9 0 73 -8l-14 -80q-28 6 -41 6q-50 0 -72 -31q-14 -20 -26 -79l-21 -104h126z" />
    <glyph glyph-name="circumflex" unicode="&#x2c6;" horiz-adv-x="278" 
d="M-6 581l99 144h91l100 -144h-80l-66 98l-65 -98h-79z" />
    <glyph glyph-name="caron" unicode="&#x2c7;" horiz-adv-x="278" 
d="M284 725l-99 -144h-91l-100 144h80l66 -98l65 98h79z" />
    <glyph glyph-name="breve" unicode="&#x2d8;" horiz-adv-x="278" 
d="M-15 722h49q15 -78 105 -78t105 78h49q-7 -64 -47.5 -100t-106.5 -36t-106.5 36t-47.5 100z" />
    <glyph glyph-name="dotaccent" unicode="&#x2d9;" horiz-adv-x="278" 
d="M92 588v100h94v-100h-94z" />
    <glyph glyph-name="ring" unicode="&#x2da;" horiz-adv-x="278" 
d="M139 767q41 0 71.5 -30.5t30.5 -71.5t-30.5 -71.5t-71.5 -30.5t-71.5 30t-30.5 72t30 72t72 30zM139 727q-25 0 -43.5 -18.5t-18.5 -43.5t18.5 -43.5t43.5 -18.5q24 0 43 19t19 43q0 25 -18.5 43.5t-43.5 18.5z" />
    <glyph glyph-name="ogonek" unicode="&#x2db;" horiz-adv-x="278" 
d="M182 0h48q-86 -68 -86 -124q0 -46 33 -46t56 29l31 -8q-41 -61 -114 -61q-82 0 -82 82q0 63 114 128z" />
    <glyph glyph-name="tilde" unicode="&#x2dc;" horiz-adv-x="278" 
d="M15 586v0h-46q16 112 94 112q27 0 80.5 -23t73.5 -23q40 -3 46 46h46q-16 -112 -94 -112q-27 0 -80.5 23t-73.5 23q-40 3 -46 -46z" />
    <glyph glyph-name="hungarumlaut" unicode="&#x2dd;" horiz-adv-x="278" 
d="M-17 581l89 144h109l-131 -144h-67zM164 581l89 144h109l-131 -144h-67z" />
    <glyph glyph-name="endash" unicode="&#x2013;" horiz-adv-x="500" 
d="M0 234v70h500v-70h-500z" />
    <glyph glyph-name="emdash" unicode="&#x2014;" horiz-adv-x="1000" 
d="M0 234v70h1000v-70h-1000z" />
    <glyph glyph-name="quoteleft" unicode="&#x2018;" horiz-adv-x="278" 
d="M226 698l-63 -245h-111l85 245h89z" />
    <glyph glyph-name="quoteright" unicode="&#x2019;" horiz-adv-x="278" 
d="M52 453l62 245h112l-88 -245h-86z" />
    <glyph glyph-name="quotesinglbase" unicode="&#x201a;" horiz-adv-x="278" 
d="M52 -133l63 245h111l-85 -245h-89z" />
    <glyph glyph-name="quotedblleft" unicode="&#x201c;" 
d="M270 698l-62 -245h-112l86 245h88zM460 698l-64 -245h-110l84 245h90z" />
    <glyph glyph-name="quotedblright" unicode="&#x201d;" 
d="M96 453l63 245h111l-85 -245h-89zM286 453l63 245h111l-85 -245h-89z" />
    <glyph glyph-name="quotedblbase" unicode="&#x201e;" 
d="M96 -133l63 245h111l-85 -245h-89zM286 -133l63 245h111l-85 -245h-89z" />
    <glyph glyph-name="dagger" unicode="&#x2020;" 
d="M234 0v453h-167v70h167v175h88v-175h167v-70h-167v-453h-88z" />
    <glyph glyph-name="daggerdbl" unicode="&#x2021;" 
d="M489 162h-167v-162h-88v162h-167v70h167v234h-167v70h167v162h88v-162h167v-70h-167v-234h167v-70z" />
    <glyph glyph-name="bullet" unicode="&#x2022;" horiz-adv-x="500" 
d="M76 349q0 73 50.5 123.5t123.5 50.5t124 -50.5t51 -123.5t-51 -124t-124 -51t-123.5 51t-50.5 124z" />
    <glyph glyph-name="ellipsis" unicode="&#x2026;" horiz-adv-x="1000" 
d="M111 0v112h112v-112h-112zM444 0v112h112v-112h-112zM777 0v112h112v-112h-112z" />
    <glyph glyph-name="perthousand" unicode="&#x2030;" horiz-adv-x="1000" 
d="M153 310q-80 0 -118 62q-32 52 -32 138q0 200 150 200t150 -200q0 -86 -32 -138q-38 -62 -118 -62zM78 -22l433 742h72l-433 -742h-72zM509 58q62 0 62 130q0 59 -6 82q-13 48 -56 48q-62 0 -62 -130t62 -130zM509 -12q-80 0 -118 62q-32 52 -32 138q0 200 150 200
t150 -200q0 -86 -32 -138q-38 -62 -118 -62zM847 58q62 0 62 130q0 59 -6 82q-13 48 -56 48q-62 0 -62 -130t62 -130zM847 -12q-80 0 -118 62q-32 52 -32 138q0 200 150 200t150 -200q0 -86 -32 -138q-38 -62 -118 -62zM153 380q62 0 62 130q0 59 -6 82q-13 48 -56 48
q-62 0 -62 -130t62 -130z" />
    <glyph glyph-name="guilsinglleft" unicode="&#x2039;" horiz-adv-x="278" 
d="M163 67l-143 202l143 202h88l-130 -202l130 -202h-88z" />
    <glyph glyph-name="guilsinglright" unicode="&#x203a;" horiz-adv-x="278" 
d="M115 471l143 -202l-143 -202h-88l130 202l-130 202h88z" />
    <glyph glyph-name="fraction" unicode="&#x2044;" horiz-adv-x="167" 
d="M-169 -22l433 742h72l-433 -742h-72z" />
    <glyph glyph-name="trademark" unicode="&#x2122;" horiz-adv-x="990" 
d="M182 282v346h-128v70h332v-70h-128v-346h-76zM484 282v416h118l109 -281l107 281h118v-416h-76v318h-2l-117 -318h-62l-117 318h-2v-318h-76z" />
    <glyph glyph-name="fi" unicode="&#xf001;" horiz-adv-x="667" 
d="M141 0v434h-120v76h120v47q0 102 33 149q40 56 138 56q25 0 63 -6l-4 -76q-16 6 -45 6q-56 0 -77 -36q-14 -26 -14 -85v-55h135v-76h-135v-434h-94zM581 730v-106h-106v106h106zM481 0v510h94v-510h-94z" />
    <glyph glyph-name="fl" unicode="&#xf002;" horiz-adv-x="667" 
d="M141 0v434h-120v76h120v47q0 102 33 149q40 56 138 56q25 0 63 -6l-4 -76q-16 6 -45 6q-56 0 -77 -36q-14 -26 -14 -85v-55h135v-76h-135v-434h-94zM481 0v750h94v-750h-94z" />
    <glyph glyph-name="glyph231" horiz-adv-x="278" 
 />
  </font>
</defs>
</svg>
